<svg width="320" height="320" viewBox="0 0 320 320" fill="none" xmlns="http://www.w3.org/2000/svg">
<g clip-path="url(#clip0_1_2)">
<rect x="160.5" y="42.5" width="139" height="44" rx="1.5" fill="#35495E" stroke="#42B883"/>
<rect x="179.5" y="125.5" width="89" height="39" rx="1.5" fill="#35495E" stroke="#42B883"/>
<path d="M156.536 44C158.076 41.3333 161.924 41.3333 163.464 44L295.1 272C296.64 274.667 294.715 278 291.636 278H28.3641C25.2849 278 23.3604 274.667 24.9 272L156.536 44Z" fill="#42B883"/>
<path d="M158.268 146C159.038 144.667 160.962 144.667 161.732 146L236.21 275C236.98 276.333 236.018 278 234.478 278H85.5218C83.9822 278 83.02 276.333 83.7898 275L158.268 146Z" fill="#35495E"/>
</g>
<defs>
<clipPath id="clip0_1_2">
<rect width="320" height="320" fill="white"/>
</clipPath>
</defs>
</svg>
